<svg xmlns="http://www.w3.org/2000/svg" width="1200" height="630" viewBox="0 0 1200 630">
<defs>
 <linearGradient id="bg" x1="0" y1="0" x2="1" y2="1">
  <stop offset="0" stop-color="#060d20"/><stop offset="0.55" stop-color="#0a1c47"/><stop offset="1" stop-color="#123a8f"/>
 </linearGradient>
 <radialGradient id="glow" cx="0.5" cy="0.5" r="0.5">
  <stop offset="0" stop-color="#60a5fa" stop-opacity="0.45"/><stop offset="1" stop-color="#60a5fa" stop-opacity="0"/>
 </radialGradient>
 <radialGradient id="seedfill" cx="0.4" cy="0.35" r="0.7">
  <stop offset="0" stop-color="#a5f3fc"/><stop offset="0.5" stop-color="#38bdf8"/><stop offset="1" stop-color="#0ea5e9"/>
 </radialGradient>
 <filter id="soft" x="-60%" y="-60%" width="220%" height="220%"><feGaussianBlur stdDeviation="9"/></filter>
 <marker id="arr" markerWidth="9" markerHeight="9" refX="7" refY="3" orient="auto"><path d="M0,0 L7,3 L0,6 Z" fill="#7dd3fc"/></marker>
 <style>
  .edge{stroke:#3f6fd0;stroke-opacity:0.28;stroke-width:1.6}
  .ring{fill:none;stroke:#7dd3fc;stroke-opacity:0.10}
  .pth{stroke:#7dd3fc;stroke-opacity:0.95;stroke-width:3.2;stroke-linecap:round;filter:url(#soft)}
  .pth2{stroke:#bae6fd;stroke-opacity:0.95;stroke-width:2.4;stroke-linecap:round;marker-end:url(#arr)}
  .nd{fill:#cfe0ff}.ndg{fill:#60a5fa;filter:url(#soft);opacity:0.6}
  .pn{fill:#e0f2fe}.png{fill:#38bdf8;filter:url(#soft);opacity:0.8}
 </style>
</defs>
<rect width="1200" height="630" fill="url(#bg)"/>
<circle cx="940" cy="120" r="320" fill="url(#glow)" opacity="0.5"/>
<circle cx="250" cy="330" r="300" fill="url(#glow)"/>
<circle class="ring" cx="250" cy="330" r="70"/><circle class="ring" cx="250" cy="330" r="130"/><circle class="ring" cx="250" cy="330" r="200"/><circle class="ring" cx="250" cy="330" r="280"/><line x1="250" y1="330" x2="352" y2="476" class="edge"/><line x1="250" y1="330" x2="300" y2="176" class="edge"/><line x1="250" y1="330" x2="150" y2="470" class="edge"/><line x1="250" y1="330" x2="470" y2="392" class="edge"/><line x1="430" y1="250" x2="540" y2="168" class="edge"/><line x1="430" y1="250" x2="300" y2="176" class="edge"/><line x1="592" y1="372" x2="470" y2="392" class="edge"/><line x1="592" y1="372" x2="678" y2="500" class="edge"/><line x1="762" y1="276" x2="660" y2="300" class="edge"/><line x1="762" y1="276" x2="860" y2="196" class="edge"/><line x1="930" y1="372" x2="820" y2="452" class="edge"/><line x1="930" y1="372" x2="1006" y2="498" class="edge"/><line x1="930" y1="372" x2="1086" y2="452" class="edge"/><line x1="860" y1="196" x2="1052" y2="300" class="edge"/><line x1="1052" y1="300" x2="1086" y2="452" class="edge"/><line x1="678" y1="500" x2="820" y2="452" class="edge"/><line x1="540" y1="168" x2="660" y2="300" class="edge"/><line x1="1006" y1="498" x2="1086" y2="452" class="edge"/><line x1="430" y1="250" x2="660" y2="300" class="edge"/><line x1="860" y1="196" x2="762" y2="276" class="edge"/><line x1="250" y1="330" x2="430" y2="250" class="pth"/><line x1="430" y1="250" x2="592" y2="372" class="pth"/><line x1="592" y1="372" x2="762" y2="276" class="pth"/><line x1="762" y1="276" x2="930" y2="372" class="pth"/><line x1="930" y1="372" x2="1052" y2="300" class="pth"/><line x1="250" y1="330" x2="430" y2="250" class="pth2"/><line x1="430" y1="250" x2="592" y2="372" class="pth2"/><line x1="592" y1="372" x2="762" y2="276" class="pth2"/><line x1="762" y1="276" x2="930" y2="372" class="pth2"/><line x1="930" y1="372" x2="1052" y2="300" class="pth2"/><circle class="ndg" cx="352" cy="476" r="12"/><circle class="nd" cx="352" cy="476" r="9"/><circle class="ndg" cx="540" cy="168" r="12"/><circle class="nd" cx="540" cy="168" r="9"/><circle class="ndg" cx="678" cy="500" r="13"/><circle class="nd" cx="678" cy="500" r="10"/><circle class="ndg" cx="860" cy="196" r="13"/><circle class="nd" cx="860" cy="196" r="10"/><circle class="ndg" cx="1052" cy="300" r="15"/><circle class="nd" cx="1052" cy="300" r="12"/><circle class="ndg" cx="1006" cy="498" r="12"/><circle class="nd" cx="1006" cy="498" r="9"/><circle class="ndg" cx="300" cy="176" r="11"/><circle class="nd" cx="300" cy="176" r="8"/><circle class="ndg" cx="470" cy="392" r="10"/><circle class="nd" cx="470" cy="392" r="7"/><circle class="ndg" cx="820" cy="452" r="11"/><circle class="nd" cx="820" cy="452" r="8"/><circle class="ndg" cx="660" cy="300" r="10"/><circle class="nd" cx="660" cy="300" r="7"/><circle class="ndg" cx="1086" cy="452" r="10"/><circle class="nd" cx="1086" cy="452" r="7"/><circle class="ndg" cx="150" cy="470" r="10"/><circle class="nd" cx="150" cy="470" r="7"/><circle class="png" cx="430" cy="250" r="17"/><circle class="pn" cx="430" cy="250" r="13"/><circle class="png" cx="592" cy="372" r="17"/><circle class="pn" cx="592" cy="372" r="13"/><circle class="png" cx="762" cy="276" r="17"/><circle class="pn" cx="762" cy="276" r="13"/><circle class="png" cx="930" cy="372" r="20"/><circle class="pn" cx="930" cy="372" r="16"/><circle cx="250" cy="330" r="37" fill="#38bdf8" opacity="0.35" filter="url(#soft)"/>
<circle cx="250" cy="330" r="21" fill="url(#seedfill)"/>
<circle cx="250" cy="330" r="21" fill="none" stroke="#e0f7ff" stroke-opacity="0.7" stroke-width="2"/></svg>