<svg xmlns="http://www.w3.org/2000/svg" viewBox="0 0 1200 720" role="img" aria-label="Abstract layered data ribbons">
  <defs>
    <linearGradient id="bg" x1="0" y1="0" x2="1" y2="1">
      <stop offset="0" stop-color="#071328"/>
      <stop offset="0.5" stop-color="#123d8f"/>
      <stop offset="1" stop-color="#17745d"/>
    </linearGradient>
    <linearGradient id="ribbon" x1="0" y1="0" x2="1" y2="0">
      <stop offset="0" stop-color="#6ee7b7" stop-opacity="0.95"/>
      <stop offset="0.48" stop-color="#93c5fd" stop-opacity="0.82"/>
      <stop offset="1" stop-color="#f8fafc" stop-opacity="0.42"/>
    </linearGradient>
  </defs>
  <rect width="1200" height="720" fill="url(#bg)"/>
  <path d="M-80 510 C180 340 330 610 570 425 C800 248 980 318 1280 122" fill="none" stroke="url(#ribbon)" stroke-width="92" stroke-linecap="round" opacity="0.78"/>
  <path d="M-60 226 C180 110 365 295 560 210 C760 123 875 120 1260 278" fill="none" stroke="#ffffff" stroke-width="34" stroke-linecap="round" opacity="0.22"/>
  <circle cx="247" cy="228" r="74" fill="#f59e0b" opacity="0.75"/>
  <circle cx="923" cy="462" r="112" fill="#22c55e" opacity="0.24"/>
  <g fill="none" stroke="#ffffff" stroke-opacity="0.22" stroke-width="2">
    <path d="M150 90 H1040"/>
    <path d="M150 180 H1040"/>
    <path d="M150 270 H1040"/>
    <path d="M150 360 H1040"/>
    <path d="M150 450 H1040"/>
    <path d="M150 540 H1040"/>
  </g>
</svg>
