<svg xmlns="http://www.w3.org/2000/svg" viewBox="0 0 1200 720" role="img" aria-label="Abstract layered automation grid">
  <defs>
    <linearGradient id="bg" x1="0" y1="1" x2="1" y2="0">
      <stop offset="0" stop-color="#071328"/>
      <stop offset="0.42" stop-color="#1d4ed8"/>
      <stop offset="1" stop-color="#fb923c"/>
    </linearGradient>
  </defs>
  <rect width="1200" height="720" fill="url(#bg)"/>
  <g opacity="0.22" stroke="#ffffff" stroke-width="2">
    <path d="M0 120 H1200"/>
    <path d="M0 240 H1200"/>
    <path d="M0 360 H1200"/>
    <path d="M0 480 H1200"/>
    <path d="M0 600 H1200"/>
    <path d="M160 0 V720"/>
    <path d="M320 0 V720"/>
    <path d="M480 0 V720"/>
    <path d="M640 0 V720"/>
    <path d="M800 0 V720"/>
    <path d="M960 0 V720"/>
  </g>
  <rect x="154" y="154" width="250" height="250" rx="42" fill="#ffffff" opacity="0.22"/>
  <rect x="278" y="278" width="330" height="330" rx="48" fill="#22c55e" opacity="0.48"/>
  <rect x="590" y="110" width="430" height="290" rx="54" fill="#ffffff" opacity="0.18"/>
  <path d="M188 520 C350 422 468 450 610 520 C750 590 856 616 1028 500" fill="none" stroke="#ffffff" stroke-width="32" stroke-linecap="round" opacity="0.48"/>
  <circle cx="776" cy="266" r="78" fill="#facc15" opacity="0.72"/>
  <circle cx="952" cy="494" r="56" fill="#e0f2fe" opacity="0.56"/>
</svg>
