<svg xmlns="http://www.w3.org/2000/svg" width="1200" height="628" viewBox="0 0 1200 628">
  <defs>
    <linearGradient id="bg1" x1="0%" y1="0%" x2="100%" y2="100%">
      <stop offset="0%" stop-color="#0a0a1a"/>
      <stop offset="100%" stop-color="#0d1b3e"/>
    </linearGradient>
    <linearGradient id="accentGrad" x1="0%" y1="0%" x2="100%" y2="0%">
      <stop offset="0%" stop-color="#6366f1"/>
      <stop offset="100%" stop-color="#06b6d4"/>
    </linearGradient>
    <radialGradient id="glow1" cx="50%" cy="50%" r="50%">
      <stop offset="0%" stop-color="#6366f1" stop-opacity="0.4"/>
      <stop offset="100%" stop-color="#6366f1" stop-opacity="0"/>
    </radialGradient>
    <radialGradient id="glow2" cx="50%" cy="50%" r="50%">
      <stop offset="0%" stop-color="#06b6d4" stop-opacity="0.35"/>
      <stop offset="100%" stop-color="#06b6d4" stop-opacity="0"/>
    </radialGradient>
    <filter id="blur1">
      <feGaussianBlur stdDeviation="18"/>
    </filter>
    <filter id="blur2">
      <feGaussianBlur stdDeviation="8"/>
    </filter>
  </defs>

  <!-- Background -->
  <rect width="1200" height="628" fill="url(#bg1)"/>

  <!-- Glow blobs -->
  <ellipse cx="320" cy="280" rx="260" ry="200" fill="url(#glow1)" filter="url(#blur1)"/>
  <ellipse cx="880" cy="350" rx="220" ry="180" fill="url(#glow2)" filter="url(#blur1)"/>

  <!-- Grid lines -->
  <g stroke="#1e2a4a" stroke-width="1" opacity="0.5">
    <line x1="0" y1="100" x2="1200" y2="100"/>
    <line x1="0" y1="200" x2="1200" y2="200"/>
    <line x1="0" y1="300" x2="1200" y2="300"/>
    <line x1="0" y1="400" x2="1200" y2="400"/>
    <line x1="0" y1="500" x2="1200" y2="500"/>
    <line x1="150" y1="0" x2="150" y2="628"/>
    <line x1="300" y1="0" x2="300" y2="628"/>
    <line x1="450" y1="0" x2="450" y2="628"/>
    <line x1="600" y1="0" x2="600" y2="628"/>
    <line x1="750" y1="0" x2="750" y2="628"/>
    <line x1="900" y1="0" x2="900" y2="628"/>
    <line x1="1050" y1="0" x2="1050" y2="628"/>
  </g>

  <!-- Neural network nodes and connections -->
  <!-- Layer 1 -->
  <circle cx="120" cy="160" r="10" fill="#6366f1" opacity="0.9"/>
  <circle cx="120" cy="314" r="10" fill="#6366f1" opacity="0.9"/>
  <circle cx="120" cy="468" r="10" fill="#6366f1" opacity="0.9"/>

  <!-- Layer 2 -->
  <circle cx="320" cy="120" r="10" fill="#7c3aed" opacity="0.9"/>
  <circle cx="320" cy="240" r="10" fill="#7c3aed" opacity="0.9"/>
  <circle cx="320" cy="360" r="10" fill="#7c3aed" opacity="0.9"/>
  <circle cx="320" cy="480" r="10" fill="#7c3aed" opacity="0.9"/>

  <!-- Layer 3 -->
  <circle cx="520" cy="180" r="14" fill="#06b6d4" opacity="0.95"/>
  <circle cx="520" cy="314" r="14" fill="#06b6d4" opacity="0.95"/>
  <circle cx="520" cy="448" r="14" fill="#06b6d4" opacity="0.95"/>

  <!-- Layer 4 -->
  <circle cx="720" cy="120" r="10" fill="#7c3aed" opacity="0.9"/>
  <circle cx="720" cy="240" r="10" fill="#7c3aed" opacity="0.9"/>
  <circle cx="720" cy="360" r="10" fill="#7c3aed" opacity="0.9"/>
  <circle cx="720" cy="480" r="10" fill="#7c3aed" opacity="0.9"/>

  <!-- Layer 5 output -->
  <circle cx="920" cy="200" r="12" fill="#6366f1" opacity="0.9"/>
  <circle cx="920" cy="314" r="12" fill="#6366f1" opacity="0.9"/>
  <circle cx="920" cy="428" r="12" fill="#6366f1" opacity="0.9"/>

  <!-- Connections L1->L2 -->
  <g stroke="#6366f1" stroke-width="0.8" opacity="0.25">
    <line x1="120" y1="160" x2="320" y2="120"/>
    <line x1="120" y1="160" x2="320" y2="240"/>
    <line x1="120" y1="160" x2="320" y2="360"/>
    <line x1="120" y1="160" x2="320" y2="480"/>
    <line x1="120" y1="314" x2="320" y2="120"/>
    <line x1="120" y1="314" x2="320" y2="240"/>
    <line x1="120" y1="314" x2="320" y2="360"/>
    <line x1="120" y1="314" x2="320" y2="480"/>
    <line x1="120" y1="468" x2="320" y2="120"/>
    <line x1="120" y1="468" x2="320" y2="240"/>
    <line x1="120" y1="468" x2="320" y2="360"/>
    <line x1="120" y1="468" x2="320" y2="480"/>
  </g>

  <!-- Connections L2->L3 -->
  <g stroke="#8b5cf6" stroke-width="1" opacity="0.3">
    <line x1="320" y1="120" x2="520" y2="180"/>
    <line x1="320" y1="120" x2="520" y2="314"/>
    <line x1="320" y1="120" x2="520" y2="448"/>
    <line x1="320" y1="240" x2="520" y2="180"/>
    <line x1="320" y1="240" x2="520" y2="314"/>
    <line x1="320" y1="240" x2="520" y2="448"/>
    <line x1="320" y1="360" x2="520" y2="180"/>
    <line x1="320" y1="360" x2="520" y2="314"/>
    <line x1="320" y1="360" x2="520" y2="448"/>
    <line x1="320" y1="480" x2="520" y2="180"/>
    <line x1="320" y1="480" x2="520" y2="314"/>
    <line x1="320" y1="480" x2="520" y2="448"/>
  </g>

  <!-- Connections L3->L4 -->
  <g stroke="#06b6d4" stroke-width="1" opacity="0.3">
    <line x1="520" y1="180" x2="720" y2="120"/>
    <line x1="520" y1="180" x2="720" y2="240"/>
    <line x1="520" y1="180" x2="720" y2="360"/>
    <line x1="520" y1="180" x2="720" y2="480"/>
    <line x1="520" y1="314" x2="720" y2="120"/>
    <line x1="520" y1="314" x2="720" y2="240"/>
    <line x1="520" y1="314" x2="720" y2="360"/>
    <line x1="520" y1="314" x2="720" y2="480"/>
    <line x1="520" y1="448" x2="720" y2="120"/>
    <line x1="520" y1="448" x2="720" y2="240"/>
    <line x1="520" y1="448" x2="720" y2="360"/>
    <line x1="520" y1="448" x2="720" y2="480"/>
  </g>

  <!-- Connections L4->L5 -->
  <g stroke="#6366f1" stroke-width="0.8" opacity="0.25">
    <line x1="720" y1="120" x2="920" y2="200"/>
    <line x1="720" y1="120" x2="920" y2="314"/>
    <line x1="720" y1="120" x2="920" y2="428"/>
    <line x1="720" y1="240" x2="920" y2="200"/>
    <line x1="720" y1="240" x2="920" y2="314"/>
    <line x1="720" y1="240" x2="920" y2="428"/>
    <line x1="720" y1="360" x2="920" y2="200"/>
    <line x1="720" y1="360" x2="920" y2="314"/>
    <line x1="720" y1="360" x2="920" y2="428"/>
    <line x1="720" y1="480" x2="920" y2="200"/>
    <line x1="720" y1="480" x2="920" y2="314"/>
    <line x1="720" y1="480" x2="920" y2="428"/>
  </g>

  <!-- Active signal paths (bright) -->
  <line x1="120" y1="314" x2="320" y2="240" stroke="url(#accentGrad)" stroke-width="2" opacity="0.8"/>
  <line x1="320" y1="240" x2="520" y2="314" stroke="url(#accentGrad)" stroke-width="2.5" opacity="0.9"/>
  <line x1="520" y1="314" x2="720" y2="360" stroke="url(#accentGrad)" stroke-width="2.5" opacity="0.9"/>
  <line x1="720" y1="360" x2="920" y2="314" stroke="url(#accentGrad)" stroke-width="2" opacity="0.8"/>

  <!-- Highlighted nodes -->
  <circle cx="120" cy="314" r="10" fill="#6366f1"/>
  <circle cx="120" cy="314" r="18" fill="#6366f1" opacity="0.2" filter="url(#blur2)"/>
  <circle cx="520" cy="314" r="14" fill="#06b6d4"/>
  <circle cx="520" cy="314" r="26" fill="#06b6d4" opacity="0.25" filter="url(#blur2)"/>
  <circle cx="920" cy="314" r="12" fill="#6366f1"/>
  <circle cx="920" cy="314" r="22" fill="#6366f1" opacity="0.2" filter="url(#blur2)"/>

  <!-- Right side output arrow -->
  <g transform="translate(960, 290)">
    <rect x="0" y="0" width="180" height="48" rx="24" fill="url(#accentGrad)" opacity="0.15"/>
    <rect x="0" y="0" width="180" height="48" rx="24" fill="none" stroke="url(#accentGrad)" stroke-width="1.5"/>
    <text x="90" y="30" font-family="'Arial', sans-serif" font-size="15" fill="#e2e8f0" text-anchor="middle" font-weight="600" letter-spacing="1">АВТОМАТИЗАЦИЯ</text>
  </g>

  <!-- Main headline -->
  <text x="600" y="58" font-family="'Arial', sans-serif" font-size="13" fill="#6366f1" text-anchor="middle" letter-spacing="4" font-weight="700">НЕЙРОННАЯ СЕТЬ</text>

  <!-- Bottom text -->
  <rect x="0" y="570" width="1200" height="58" fill="#070711" opacity="0.7"/>
  <text x="60" y="603" font-family="'Arial', sans-serif" font-size="28" fill="white" font-weight="700">Backlogram</text>
  <text x="60" y="622" font-family="'Arial', sans-serif" font-size="11" fill="#94a3b8" letter-spacing="2">АВТОМАТИЗАЦИЯ БИЗНЕС-ПРОЦЕССОВ</text>
  <text x="1140" y="610" font-family="'Arial', sans-serif" font-size="12" fill="#6366f1" text-anchor="end" letter-spacing="1">backlogram.ru</text>
</svg>
