<svg xmlns="http://www.w3.org/2000/svg" width="1200" height="628" viewBox="0 0 1200 628">
  <defs>
    <linearGradient id="bg2" x1="0%" y1="0%" x2="100%" y2="100%">
      <stop offset="0%" stop-color="#050d1a"/>
      <stop offset="100%" stop-color="#071428"/>
    </linearGradient>
    <linearGradient id="cyanGrad" x1="0%" y1="0%" x2="100%" y2="0%">
      <stop offset="0%" stop-color="#06b6d4"/>
      <stop offset="100%" stop-color="#3b82f6"/>
    </linearGradient>
    <linearGradient id="purpleGrad" x1="0%" y1="0%" x2="100%" y2="100%">
      <stop offset="0%" stop-color="#8b5cf6"/>
      <stop offset="100%" stop-color="#6366f1"/>
    </linearGradient>
    <radialGradient id="centerGlow" cx="50%" cy="50%" r="50%">
      <stop offset="0%" stop-color="#06b6d4" stop-opacity="0.5"/>
      <stop offset="100%" stop-color="#06b6d4" stop-opacity="0"/>
    </radialGradient>
    <filter id="gf">
      <feGaussianBlur stdDeviation="20"/>
    </filter>
    <filter id="gf2">
      <feGaussianBlur stdDeviation="6"/>
    </filter>
    <clipPath id="clip1">
      <rect width="1200" height="628"/>
    </clipPath>
  </defs>

  <rect width="1200" height="628" fill="url(#bg2)"/>

  <!-- Background glow -->
  <ellipse cx="600" cy="314" rx="350" ry="280" fill="url(#centerGlow)" filter="url(#gf)"/>

  <!-- Circuit board pattern -->
  <!-- Horizontal traces -->
  <g stroke="#0e2a4a" stroke-width="1.5" fill="none" clip-path="url(#clip1)">
    <polyline points="0,80 200,80 200,140 400,140 400,80 700,80 700,200 900,200 900,80 1200,80"/>
    <polyline points="0,200 100,200 100,260 300,260 300,180 500,180 500,260 650,260 650,180 800,180 800,260 1000,260 1000,200 1200,200"/>
    <polyline points="0,340 150,340 150,400 350,400 350,320 550,320 550,400 700,400 700,320 850,320 850,400 1050,400 1050,340 1200,340"/>
    <polyline points="0,470 200,470 200,530 400,530 400,470 600,470 600,530 800,530 800,470 1000,470 1000,530 1200,530"/>
    <polyline points="0,580 1200,580"/>
  </g>

  <!-- Vertical connections -->
  <g stroke="#0e2a4a" stroke-width="1.5" fill="none">
    <line x1="200" y1="80" x2="200" y2="200"/>
    <line x1="400" y1="140" x2="400" y2="260"/>
    <line x1="600" y1="180" x2="600" y2="320"/>
    <line x1="800" y1="200" x2="800" y2="340"/>
    <line x1="1000" y1="260" x2="1000" y2="400"/>
    <line x1="300" y1="260" x2="300" y2="400"/>
    <line x1="550" y1="260" x2="550" y2="400"/>
    <line x1="700" y1="320" x2="700" y2="470"/>
    <line x1="400" y1="400" x2="400" y2="470"/>
    <line x1="800" y1="400" x2="800" y2="470"/>
  </g>

  <!-- Active circuit traces (glowing) -->
  <g fill="none">
    <polyline points="100,314 100,260 300,260 300,180 500,180 500,260 700,260 700,314"
      stroke="#06b6d4" stroke-width="2.5" opacity="0.9"/>
    <polyline points="700,314 700,400 900,400 900,314 1100,314"
      stroke="#3b82f6" stroke-width="2.5" opacity="0.9"/>
    <polyline points="100,314 100,400 300,400 300,314"
      stroke="#8b5cf6" stroke-width="2" opacity="0.8"/>
  </g>
  <!-- Glow duplicates -->
  <g fill="none" filter="url(#gf2)">
    <polyline points="100,314 100,260 300,260 300,180 500,180 500,260 700,260 700,314"
      stroke="#06b6d4" stroke-width="4" opacity="0.4"/>
    <polyline points="700,314 700,400 900,400 900,314 1100,314"
      stroke="#3b82f6" stroke-width="4" opacity="0.4"/>
  </g>

  <!-- Circuit nodes/pads -->
  <g>
    <!-- Dim nodes -->
    <circle cx="200" cy="80" r="5" fill="#0e2a4a" stroke="#1e3a6a" stroke-width="1.5"/>
    <circle cx="400" cy="140" r="5" fill="#0e2a4a" stroke="#1e3a6a" stroke-width="1.5"/>
    <circle cx="700" cy="80" r="5" fill="#0e2a4a" stroke="#1e3a6a" stroke-width="1.5"/>
    <circle cx="900" cy="200" r="5" fill="#0e2a4a" stroke="#1e3a6a" stroke-width="1.5"/>
    <circle cx="300" cy="400" r="5" fill="#0e2a4a" stroke="#1e3a6a" stroke-width="1.5"/>
    <circle cx="1000" cy="400" r="5" fill="#0e2a4a" stroke="#1e3a6a" stroke-width="1.5"/>

    <!-- Active nodes -->
    <circle cx="100" cy="314" r="8" fill="#06b6d4"/>
    <circle cx="100" cy="314" r="16" fill="#06b6d4" opacity="0.2" filter="url(#gf2)"/>
    <circle cx="300" cy="260" r="7" fill="#06b6d4" opacity="0.9"/>
    <circle cx="500" cy="180" r="7" fill="#06b6d4" opacity="0.9"/>
    <circle cx="700" cy="260" r="7" fill="#06b6d4" opacity="0.9"/>
    <circle cx="700" cy="314" r="10" fill="#3b82f6"/>
    <circle cx="700" cy="314" r="20" fill="#3b82f6" opacity="0.2" filter="url(#gf2)"/>
    <circle cx="900" cy="400" r="7" fill="#3b82f6" opacity="0.9"/>
    <circle cx="1100" cy="314" r="8" fill="#3b82f6"/>
    <circle cx="1100" cy="314" r="16" fill="#3b82f6" opacity="0.2" filter="url(#gf2)"/>
    <circle cx="300" cy="314" r="7" fill="#8b5cf6" opacity="0.9"/>
    <circle cx="100" cy="400" r="6" fill="#8b5cf6" opacity="0.8"/>
  </g>

  <!-- IC Chip in center -->
  <rect x="480" y="234" width="240" height="160" rx="8" fill="#060e1f" stroke="#06b6d4" stroke-width="1.5"/>
  <!-- Chip pins left -->
  <g stroke="#06b6d4" stroke-width="2">
    <line x1="460" y1="254" x2="480" y2="254"/>
    <line x1="460" y1="274" x2="480" y2="274"/>
    <line x1="460" y1="294" x2="480" y2="294"/>
    <line x1="460" y1="314" x2="480" y2="314"/>
    <line x1="460" y1="334" x2="480" y2="334"/>
    <line x1="460" y1="354" x2="480" y2="354"/>
    <line x1="460" y1="374" x2="480" y2="374"/>
  </g>
  <!-- Chip pins right -->
  <g stroke="#3b82f6" stroke-width="2">
    <line x1="720" y1="254" x2="740" y2="254"/>
    <line x1="720" y1="274" x2="740" y2="274"/>
    <line x1="720" y1="294" x2="740" y2="294"/>
    <line x1="720" y1="314" x2="740" y2="314"/>
    <line x1="720" y1="334" x2="740" y2="334"/>
    <line x1="720" y1="354" x2="740" y2="354"/>
    <line x1="720" y1="374" x2="740" y2="374"/>
  </g>
  <!-- Chip pins top -->
  <g stroke="#8b5cf6" stroke-width="2">
    <line x1="510" y1="214" x2="510" y2="234"/>
    <line x1="540" y1="214" x2="540" y2="234"/>
    <line x1="570" y1="214" x2="570" y2="234"/>
    <line x1="600" y1="214" x2="600" y2="234"/>
    <line x1="630" y1="214" x2="630" y2="234"/>
    <line x1="660" y1="214" x2="660" y2="234"/>
    <line x1="690" y1="214" x2="690" y2="234"/>
  </g>
  <!-- Chip pins bottom -->
  <g stroke="#8b5cf6" stroke-width="2">
    <line x1="510" y1="394" x2="510" y2="414"/>
    <line x1="540" y1="394" x2="540" y2="414"/>
    <line x1="570" y1="394" x2="570" y2="414"/>
    <line x1="600" y1="394" x2="600" y2="414"/>
    <line x1="630" y1="394" x2="630" y2="414"/>
    <line x1="660" y1="394" x2="660" y2="414"/>
    <line x1="690" y1="394" x2="690" y2="414"/>
  </g>
  <!-- Chip label -->
  <text x="600" y="304" font-family="'Courier New', monospace" font-size="13" fill="#06b6d4" text-anchor="middle" font-weight="700" letter-spacing="2">AUTO</text>
  <text x="600" y="324" font-family="'Courier New', monospace" font-size="13" fill="#06b6d4" text-anchor="middle" font-weight="700" letter-spacing="2">CORE</text>
  <text x="600" y="345" font-family="'Courier New', monospace" font-size="9" fill="#3b82f6" text-anchor="middle" letter-spacing="1">v2.0</text>

  <!-- Bottom bar -->
  <rect x="0" y="570" width="1200" height="58" fill="#020810" opacity="0.85"/>
  <text x="60" y="603" font-family="'Arial', sans-serif" font-size="28" fill="white" font-weight="700">Backlogram</text>
  <text x="60" y="622" font-family="'Arial', sans-serif" font-size="11" fill="#94a3b8" letter-spacing="2">УМНАЯ АВТОМАТИЗАЦИЯ ДЛЯ ВАШЕГО БИЗНЕСА</text>
  <text x="1140" y="610" font-family="'Arial', sans-serif" font-size="12" fill="#06b6d4" text-anchor="end" letter-spacing="1">backlogram.ru</text>
</svg>
