<svg xmlns="http://www.w3.org/2000/svg" width="1200" height="628" viewBox="0 0 1200 628">
  <defs>
    <linearGradient id="bg4" x1="0%" y1="0%" x2="100%" y2="100%">
      <stop offset="0%" stop-color="#020c18"/>
      <stop offset="100%" stop-color="#081428"/>
    </linearGradient>
    <linearGradient id="emeraldGrad" x1="0%" y1="0%" x2="100%" y2="100%">
      <stop offset="0%" stop-color="#10b981"/>
      <stop offset="100%" stop-color="#06b6d4"/>
    </linearGradient>
    <linearGradient id="amberGrad" x1="0%" y1="0%" x2="100%" y2="0%">
      <stop offset="0%" stop-color="#f59e0b"/>
      <stop offset="100%" stop-color="#ef4444"/>
    </linearGradient>
    <linearGradient id="blueGrad" x1="0%" y1="0%" x2="100%" y2="100%">
      <stop offset="0%" stop-color="#3b82f6"/>
      <stop offset="100%" stop-color="#6366f1"/>
    </linearGradient>
    <radialGradient id="glowGear" cx="50%" cy="50%" r="50%">
      <stop offset="0%" stop-color="#10b981" stop-opacity="0.4"/>
      <stop offset="100%" stop-color="#10b981" stop-opacity="0"/>
    </radialGradient>
    <filter id="gearBlur">
      <feGaussianBlur stdDeviation="15"/>
    </filter>
    <filter id="gearBlurSm">
      <feGaussianBlur stdDeviation="5"/>
    </filter>
  </defs>

  <rect width="1200" height="628" fill="url(#bg4)"/>

  <!-- Background glow spots -->
  <ellipse cx="350" cy="300" rx="200" ry="180" fill="#10b981" opacity="0.08" filter="url(#gearBlur)"/>
  <ellipse cx="750" cy="300" rx="180" ry="160" fill="#3b82f6" opacity="0.1" filter="url(#gearBlur)"/>
  <ellipse cx="1050" cy="300" rx="140" ry="120" fill="#f59e0b" opacity="0.08" filter="url(#gearBlur)"/>

  <!-- Gear 1 (large, left) - 12 teeth -->
  <g transform="translate(320, 280)">
    <circle r="95" fill="#040e1c" stroke="#10b981" stroke-width="2"/>
    <circle r="68" fill="#040e1c" stroke="#10b981" stroke-width="1.5"/>
    <circle r="22" fill="#10b981" opacity="0.3"/>
    <circle r="12" fill="#10b981"/>
    <!-- Gear teeth (12) -->
    <g fill="#040e1c" stroke="#10b981" stroke-width="1.5">
      <rect x="-10" y="-108" width="20" height="22" rx="3"/>
      <rect x="-10" y="-108" width="20" height="22" rx="3" transform="rotate(30)"/>
      <rect x="-10" y="-108" width="20" height="22" rx="3" transform="rotate(60)"/>
      <rect x="-10" y="-108" width="20" height="22" rx="3" transform="rotate(90)"/>
      <rect x="-10" y="-108" width="20" height="22" rx="3" transform="rotate(120)"/>
      <rect x="-10" y="-108" width="20" height="22" rx="3" transform="rotate(150)"/>
      <rect x="-10" y="-108" width="20" height="22" rx="3" transform="rotate(180)"/>
      <rect x="-10" y="-108" width="20" height="22" rx="3" transform="rotate(210)"/>
      <rect x="-10" y="-108" width="20" height="22" rx="3" transform="rotate(240)"/>
      <rect x="-10" y="-108" width="20" height="22" rx="3" transform="rotate(270)"/>
      <rect x="-10" y="-108" width="20" height="22" rx="3" transform="rotate(300)"/>
      <rect x="-10" y="-108" width="20" height="22" rx="3" transform="rotate(330)"/>
    </g>
    <!-- Spokes -->
    <g stroke="#10b981" stroke-width="1.5" opacity="0.5">
      <line x1="0" y1="0" x2="0" y2="-60"/>
      <line x1="0" y1="0" x2="52" y2="30"/>
      <line x1="0" y1="0" x2="-52" y2="30"/>
      <line x1="0" y1="0" x2="0" y2="60"/>
      <line x1="0" y1="0" x2="52" y2="-30"/>
      <line x1="0" y1="0" x2="-52" y2="-30"/>
    </g>
    <!-- Inner glow -->
    <circle r="95" fill="url(#glowGear)" filter="url(#gearBlurSm)" opacity="0.6"/>
  </g>

  <!-- Gear 2 (medium, center) - 8 teeth -->
  <g transform="translate(650, 220)">
    <circle r="65" fill="#040e1c" stroke="#3b82f6" stroke-width="2"/>
    <circle r="46" fill="#040e1c" stroke="#3b82f6" stroke-width="1.5"/>
    <circle r="16" fill="#3b82f6" opacity="0.3"/>
    <circle r="8" fill="#3b82f6"/>
    <!-- Teeth (8) -->
    <g fill="#040e1c" stroke="#3b82f6" stroke-width="1.5">
      <rect x="-8" y="-76" width="16" height="18" rx="3"/>
      <rect x="-8" y="-76" width="16" height="18" rx="3" transform="rotate(45)"/>
      <rect x="-8" y="-76" width="16" height="18" rx="3" transform="rotate(90)"/>
      <rect x="-8" y="-76" width="16" height="18" rx="3" transform="rotate(135)"/>
      <rect x="-8" y="-76" width="16" height="18" rx="3" transform="rotate(180)"/>
      <rect x="-8" y="-76" width="16" height="18" rx="3" transform="rotate(225)"/>
      <rect x="-8" y="-76" width="16" height="18" rx="3" transform="rotate(270)"/>
      <rect x="-8" y="-76" width="16" height="18" rx="3" transform="rotate(315)"/>
    </g>
    <g stroke="#3b82f6" stroke-width="1.5" opacity="0.5">
      <line x1="0" y1="0" x2="0" y2="-40"/>
      <line x1="0" y1="0" x2="40" y2="0"/>
      <line x1="0" y1="0" x2="0" y2="40"/>
      <line x1="0" y1="0" x2="-40" y2="0"/>
    </g>
  </g>

  <!-- Gear 3 (medium, center-bottom) - 8 teeth -->
  <g transform="translate(650, 380)">
    <circle r="55" fill="#040e1c" stroke="#6366f1" stroke-width="2"/>
    <circle r="38" fill="#040e1c" stroke="#6366f1" stroke-width="1.5"/>
    <circle r="12" fill="#6366f1" opacity="0.3"/>
    <circle r="7" fill="#6366f1"/>
    <g fill="#040e1c" stroke="#6366f1" stroke-width="1.5">
      <rect x="-7" y="-64" width="14" height="16" rx="3"/>
      <rect x="-7" y="-64" width="14" height="16" rx="3" transform="rotate(45)"/>
      <rect x="-7" y="-64" width="14" height="16" rx="3" transform="rotate(90)"/>
      <rect x="-7" y="-64" width="14" height="16" rx="3" transform="rotate(135)"/>
      <rect x="-7" y="-64" width="14" height="16" rx="3" transform="rotate(180)"/>
      <rect x="-7" y="-64" width="14" height="16" rx="3" transform="rotate(225)"/>
      <rect x="-7" y="-64" width="14" height="16" rx="3" transform="rotate(270)"/>
      <rect x="-7" y="-64" width="14" height="16" rx="3" transform="rotate(315)"/>
    </g>
    <g stroke="#6366f1" stroke-width="1.5" opacity="0.5">
      <line x1="0" y1="0" x2="0" y2="-34"/>
      <line x1="0" y1="0" x2="34" y2="0"/>
      <line x1="0" y1="0" x2="0" y2="34"/>
      <line x1="0" y1="0" x2="-34" y2="0"/>
    </g>
  </g>

  <!-- Gear 4 (small, right) - 6 teeth -->
  <g transform="translate(920, 300)">
    <circle r="80" fill="#040e1c" stroke="#f59e0b" stroke-width="2"/>
    <circle r="56" fill="#040e1c" stroke="#f59e0b" stroke-width="1.5"/>
    <circle r="18" fill="#f59e0b" opacity="0.25"/>
    <circle r="10" fill="#f59e0b"/>
    <g fill="#040e1c" stroke="#f59e0b" stroke-width="1.5">
      <rect x="-8" y="-92" width="16" height="20" rx="3"/>
      <rect x="-8" y="-92" width="16" height="20" rx="3" transform="rotate(60)"/>
      <rect x="-8" y="-92" width="16" height="20" rx="3" transform="rotate(120)"/>
      <rect x="-8" y="-92" width="16" height="20" rx="3" transform="rotate(180)"/>
      <rect x="-8" y="-92" width="16" height="20" rx="3" transform="rotate(240)"/>
      <rect x="-8" y="-92" width="16" height="20" rx="3" transform="rotate(300)"/>
    </g>
    <g stroke="#f59e0b" stroke-width="1.5" opacity="0.5">
      <line x1="0" y1="0" x2="0" y2="-50"/>
      <line x1="0" y1="0" x2="43" y2="25"/>
      <line x1="0" y1="0" x2="-43" y2="25"/>
      <line x1="0" y1="0" x2="0" y2="50"/>
      <line x1="0" y1="0" x2="43" y2="-25"/>
      <line x1="0" y1="0" x2="-43" y2="-25"/>
    </g>
  </g>

  <!-- Connecting lines between gears -->
  <line x1="415" y1="280" x2="585" y2="230" stroke="#10b981" stroke-width="1" stroke-dasharray="4 4" opacity="0.4"/>
  <line x1="415" y1="290" x2="595" y2="355" stroke="#10b981" stroke-width="1" stroke-dasharray="4 4" opacity="0.4"/>
  <line x1="715" y1="230" x2="840" y2="260" stroke="#3b82f6" stroke-width="1" stroke-dasharray="4 4" opacity="0.4"/>
  <line x1="705" y1="380" x2="840" y2="340" stroke="#6366f1" stroke-width="1" stroke-dasharray="4 4" opacity="0.4"/>

  <!-- Efficiency metrics on right -->
  <g transform="translate(1070, 140)">
    <text x="0" y="0" font-family="'Arial', sans-serif" font-size="11" fill="#94a3b8" letter-spacing="2">ЭФФЕКТИВНОСТЬ</text>
    <rect x="0" y="10" width="100" height="8" rx="4" fill="#0d1f3a"/>
    <rect x="0" y="10" width="87" height="8" rx="4" fill="#10b981" opacity="0.8"/>
    <text x="105" y="20" font-family="'Arial', sans-serif" font-size="10" fill="#10b981">87%</text>
  </g>
  <g transform="translate(1070, 180)">
    <text x="0" y="0" font-family="'Arial', sans-serif" font-size="11" fill="#94a3b8" letter-spacing="2">СКОРОСТЬ</text>
    <rect x="0" y="10" width="100" height="8" rx="4" fill="#0d1f3a"/>
    <rect x="0" y="10" width="95" height="8" rx="4" fill="#3b82f6" opacity="0.8"/>
    <text x="105" y="20" font-family="'Arial', sans-serif" font-size="10" fill="#3b82f6">95%</text>
  </g>
  <g transform="translate(1070, 220)">
    <text x="0" y="0" font-family="'Arial', sans-serif" font-size="11" fill="#94a3b8" letter-spacing="2">ТОЧНОСТЬ</text>
    <rect x="0" y="10" width="100" height="8" rx="4" fill="#0d1f3a"/>
    <rect x="0" y="10" width="99" height="8" rx="4" fill="#f59e0b" opacity="0.8"/>
    <text x="105" y="20" font-family="'Arial', sans-serif" font-size="10" fill="#f59e0b">99%</text>
  </g>

  <!-- Bottom bar -->
  <rect x="0" y="570" width="1200" height="58" fill="#020c18" opacity="0.9"/>
  <text x="60" y="603" font-family="'Arial', sans-serif" font-size="28" fill="white" font-weight="700">Backlogram</text>
  <text x="60" y="622" font-family="'Arial', sans-serif" font-size="11" fill="#94a3b8" letter-spacing="2">ПРОЦЕССЫ ПОД КОНТРОЛЕМ. ВСЕГДА.</text>
  <text x="1140" y="610" font-family="'Arial', sans-serif" font-size="12" fill="#10b981" text-anchor="end" letter-spacing="1">backlogram.ru</text>
</svg>
